<?xml version="1.0" standalone="no"?>
<!DOCTYPE svg PUBLIC "-//W3C//DTD SVG 20010904//EN"
 "http://www.w3.org/TR/2001/REC-SVG-20010904/DTD/svg10.dtd">
<svg version="1.0" xmlns="http://www.w3.org/2000/svg"
 width="1122.000000pt" height="1122.000000pt" viewBox="0 0 1122.000000 1122.000000"
 preserveAspectRatio="xMidYMid meet">
<metadata>
Created by potrace 1.14, written by Peter Selinger 2001-2017
</metadata>
<g transform="translate(0.000000,1122.000000) scale(0.100000,-0.100000)"
fill="#000000" stroke="none">
<path d="M5338 11215 c-1 -1 -55 -5 -118 -9 -63 -3 -126 -8 -140 -10 -14 -2
-54 -7 -90 -11 -36 -3 -78 -8 -95 -11 -16 -2 -46 -6 -65 -8 -193 -24 -672
-126 -780 -165 -14 -6 -72 -24 -130 -41 -231 -70 -511 -182 -770 -308 -176
-86 -291 -150 -515 -285 -205 -124 -547 -380 -760 -571 -91 -81 -345 -333
-420 -417 -76 -84 -152 -173 -177 -205 -12 -16 -25 -31 -28 -34 -3 -3 -28 -34
-55 -70 -28 -35 -55 -71 -62 -80 -57 -74 -101 -136 -190 -268 -57 -84 -103
-154 -103 -156 0 -3 -22 -41 -50 -85 -27 -44 -50 -83 -50 -85 0 -2 -19 -37
-43 -78 -40 -67 -207 -400 -207 -412 0 -3 -11 -29 -24 -58 -115 -246 -253
-667 -325 -988 -35 -156 -39 -177 -56 -275 -12 -72 -15 -90 -20 -114 -2 -13
-7 -49 -11 -80 -3 -31 -8 -63 -9 -71 -2 -8 -6 -46 -10 -85 -4 -38 -9 -81 -11
-95 -25 -205 -25 -842 1 -1067 2 -21 7 -63 10 -93 4 -30 8 -71 10 -90 5 -37
27 -181 45 -290 12 -72 64 -307 79 -357 5 -18 8 -33 5 -33 -3 0 0 -8 5 -18 6
-11 12 -30 15 -43 16 -93 145 -473 229 -679 93 -228 293 -625 368 -732 11 -14
19 -29 19 -33 0 -13 207 -320 298 -442 355 -476 803 -911 1280 -1246 118 -83
111 -78 274 -178 306 -189 569 -322 881 -446 116 -45 392 -142 457 -159 8 -2
56 -15 105 -29 97 -27 319 -80 400 -96 28 -5 61 -11 75 -14 146 -29 275 -47
420 -61 36 -3 76 -7 90 -10 116 -19 735 -26 915 -11 50 5 108 10 130 12 66 5
179 17 200 21 11 2 43 7 70 10 45 5 332 56 380 68 11 2 63 14 115 26 101 22
315 81 390 106 25 9 52 17 60 19 25 6 228 80 340 124 543 216 1080 537 1530
917 246 208 533 496 709 714 20 25 39 47 42 50 4 3 56 70 116 150 483 640 822
1370 998 2150 14 63 28 129 31 145 2 17 11 66 20 110 8 44 17 100 20 125 3 25
9 73 15 107 5 35 12 93 15 130 3 38 7 79 10 93 25 152 25 826 -1 1050 -2 19
-6 60 -10 90 -12 114 -16 147 -30 235 -100 616 -274 1159 -540 1680 -313 613
-713 1138 -1230 1615 -111 103 -340 290 -455 373 -14 9 -52 37 -85 60 -516
372 -1199 689 -1825 848 -182 46 -437 98 -585 118 -186 26 -204 28 -305 36
-47 4 -101 9 -120 11 -40 6 -666 14 -672 9z"/>
</g>
</svg>
